<mxfile host="Electron" modified="2024-05-05T11:12:03.579Z" agent="Mozilla/5.0 (Windows NT 10.0; Win64; x64) AppleWebKit/537.36 (KHTML, like Gecko) draw.io/24.2.5 Chrome/120.0.6099.109 Electron/28.1.0 Safari/537.36" etag="LsqHakw0isWf535TxpEk" version="24.2.5" type="device">
  <diagram id="C5RBs43oDa-KdzZeNtuy" name="Page-1">
    <mxGraphModel dx="714" dy="418" grid="1" gridSize="10" guides="1" tooltips="1" connect="1" arrows="1" fold="1" page="1" pageScale="1" pageWidth="827" pageHeight="1169" math="0" shadow="0">
      <root>
        <mxCell id="WIyWlLk6GJQsqaUBKTNV-0" />
        <mxCell id="WIyWlLk6GJQsqaUBKTNV-1" parent="WIyWlLk6GJQsqaUBKTNV-0" />
        <mxCell id="OWjvIQRJCl1kw9FK6CFQ-1" style="edgeStyle=orthogonalEdgeStyle;rounded=0;orthogonalLoop=1;jettySize=auto;html=1;exitX=0.25;exitY=1;exitDx=0;exitDy=0;" parent="WIyWlLk6GJQsqaUBKTNV-1" source="WIyWlLk6GJQsqaUBKTNV-3" target="OWjvIQRJCl1kw9FK6CFQ-2" edge="1">
          <mxGeometry relative="1" as="geometry">
            <mxPoint x="280" y="120" as="targetPoint" />
          </mxGeometry>
        </mxCell>
        <mxCell id="OWjvIQRJCl1kw9FK6CFQ-7" value="degree &amp;gt; limit" style="edgeLabel;html=1;align=center;verticalAlign=middle;resizable=0;points=[];" parent="OWjvIQRJCl1kw9FK6CFQ-1" vertex="1" connectable="0">
          <mxGeometry x="-0.0075" y="-2" relative="1" as="geometry">
            <mxPoint as="offset" />
          </mxGeometry>
        </mxCell>
        <mxCell id="OWjvIQRJCl1kw9FK6CFQ-6" style="edgeStyle=orthogonalEdgeStyle;rounded=0;orthogonalLoop=1;jettySize=auto;html=1;exitX=0.75;exitY=1;exitDx=0;exitDy=0;entryX=0.5;entryY=0;entryDx=0;entryDy=0;" parent="WIyWlLk6GJQsqaUBKTNV-1" source="WIyWlLk6GJQsqaUBKTNV-3" target="OWjvIQRJCl1kw9FK6CFQ-4" edge="1">
          <mxGeometry relative="1" as="geometry" />
        </mxCell>
        <mxCell id="OWjvIQRJCl1kw9FK6CFQ-8" value="degree &amp;lt; limit" style="edgeLabel;html=1;align=center;verticalAlign=middle;resizable=0;points=[];" parent="OWjvIQRJCl1kw9FK6CFQ-6" vertex="1" connectable="0">
          <mxGeometry x="0.0317" y="2" relative="1" as="geometry">
            <mxPoint as="offset" />
          </mxGeometry>
        </mxCell>
        <mxCell id="WIyWlLk6GJQsqaUBKTNV-3" value="Measure degree and sample limit" style="rounded=1;whiteSpace=wrap;html=1;fontSize=12;glass=0;strokeWidth=1;shadow=0;" parent="WIyWlLk6GJQsqaUBKTNV-1" vertex="1">
          <mxGeometry x="310" y="30" width="120" height="40" as="geometry" />
        </mxCell>
        <mxCell id="OWjvIQRJCl1kw9FK6CFQ-10" value="" style="edgeStyle=orthogonalEdgeStyle;rounded=0;orthogonalLoop=1;jettySize=auto;html=1;entryX=0.375;entryY=-0.002;entryDx=0;entryDy=0;entryPerimeter=0;" parent="WIyWlLk6GJQsqaUBKTNV-1" target="OWjvIQRJCl1kw9FK6CFQ-9" edge="1">
          <mxGeometry relative="1" as="geometry">
            <mxPoint x="300" y="175" as="sourcePoint" />
            <mxPoint x="360" y="250" as="targetPoint" />
          </mxGeometry>
        </mxCell>
        <mxCell id="OWjvIQRJCl1kw9FK6CFQ-2" value="Start buzzing" style="ellipse;whiteSpace=wrap;html=1;" parent="WIyWlLk6GJQsqaUBKTNV-1" vertex="1">
          <mxGeometry x="180" y="150" width="120" height="70" as="geometry" />
        </mxCell>
        <mxCell id="OWjvIQRJCl1kw9FK6CFQ-4" value="Stop buzzing" style="ellipse;whiteSpace=wrap;html=1;" parent="WIyWlLk6GJQsqaUBKTNV-1" vertex="1">
          <mxGeometry x="420" y="150" width="120" height="60" as="geometry" />
        </mxCell>
        <mxCell id="m12teL1TtOATJq7UXXTl-8" style="edgeStyle=orthogonalEdgeStyle;rounded=0;orthogonalLoop=1;jettySize=auto;html=1;exitX=1;exitY=1;exitDx=0;exitDy=0;entryX=0.5;entryY=0;entryDx=0;entryDy=0;" edge="1" parent="WIyWlLk6GJQsqaUBKTNV-1" source="OWjvIQRJCl1kw9FK6CFQ-9" target="OWjvIQRJCl1kw9FK6CFQ-12">
          <mxGeometry relative="1" as="geometry" />
        </mxCell>
        <mxCell id="m12teL1TtOATJq7UXXTl-12" value="same limit" style="edgeLabel;html=1;align=center;verticalAlign=middle;resizable=0;points=[];" vertex="1" connectable="0" parent="m12teL1TtOATJq7UXXTl-8">
          <mxGeometry x="0.1398" y="1" relative="1" as="geometry">
            <mxPoint as="offset" />
          </mxGeometry>
        </mxCell>
        <mxCell id="OWjvIQRJCl1kw9FK6CFQ-9" value="Send degree to the PC" style="ellipse;whiteSpace=wrap;html=1;" parent="WIyWlLk6GJQsqaUBKTNV-1" vertex="1">
          <mxGeometry x="310" y="220" width="120" height="80" as="geometry" />
        </mxCell>
        <mxCell id="OWjvIQRJCl1kw9FK6CFQ-19" style="edgeStyle=orthogonalEdgeStyle;rounded=0;orthogonalLoop=1;jettySize=auto;html=1;entryX=1;entryY=0.5;entryDx=0;entryDy=0;" parent="WIyWlLk6GJQsqaUBKTNV-1" target="WIyWlLk6GJQsqaUBKTNV-3" edge="1">
          <mxGeometry relative="1" as="geometry">
            <mxPoint x="490" y="380" as="sourcePoint" />
            <mxPoint x="536.68" y="80" as="targetPoint" />
            <Array as="points">
              <mxPoint x="590" y="380" />
              <mxPoint x="590" y="50" />
            </Array>
          </mxGeometry>
        </mxCell>
        <mxCell id="OWjvIQRJCl1kw9FK6CFQ-12" value="Display degree on the 7seg" style="ellipse;whiteSpace=wrap;html=1;" parent="WIyWlLk6GJQsqaUBKTNV-1" vertex="1">
          <mxGeometry x="420" y="340" width="120" height="70" as="geometry" />
        </mxCell>
        <mxCell id="OWjvIQRJCl1kw9FK6CFQ-15" style="edgeStyle=orthogonalEdgeStyle;rounded=0;orthogonalLoop=1;jettySize=auto;html=1;exitX=0;exitY=0.5;exitDx=0;exitDy=0;entryX=0.615;entryY=-0.002;entryDx=0;entryDy=0;entryPerimeter=0;" parent="WIyWlLk6GJQsqaUBKTNV-1" source="OWjvIQRJCl1kw9FK6CFQ-4" target="OWjvIQRJCl1kw9FK6CFQ-9" edge="1">
          <mxGeometry relative="1" as="geometry" />
        </mxCell>
        <mxCell id="OWjvIQRJCl1kw9FK6CFQ-25" style="edgeStyle=orthogonalEdgeStyle;rounded=0;orthogonalLoop=1;jettySize=auto;html=1;exitX=0;exitY=0.5;exitDx=0;exitDy=0;entryX=0;entryY=0.5;entryDx=0;entryDy=0;" parent="WIyWlLk6GJQsqaUBKTNV-1" source="OWjvIQRJCl1kw9FK6CFQ-24" target="WIyWlLk6GJQsqaUBKTNV-3" edge="1">
          <mxGeometry relative="1" as="geometry">
            <mxPoint x="160" y="50" as="targetPoint" />
            <Array as="points">
              <mxPoint x="160" y="375" />
              <mxPoint x="160" y="50" />
            </Array>
          </mxGeometry>
        </mxCell>
        <mxCell id="OWjvIQRJCl1kw9FK6CFQ-24" value="Display limit ont the 7seg" style="ellipse;whiteSpace=wrap;html=1;" parent="WIyWlLk6GJQsqaUBKTNV-1" vertex="1">
          <mxGeometry x="200" y="350" width="120" height="60" as="geometry" />
        </mxCell>
        <mxCell id="m12teL1TtOATJq7UXXTl-10" style="edgeStyle=orthogonalEdgeStyle;rounded=0;orthogonalLoop=1;jettySize=auto;html=1;exitX=0;exitY=1;exitDx=0;exitDy=0;entryX=0.337;entryY=0.002;entryDx=0;entryDy=0;entryPerimeter=0;" edge="1" parent="WIyWlLk6GJQsqaUBKTNV-1" source="OWjvIQRJCl1kw9FK6CFQ-9" target="OWjvIQRJCl1kw9FK6CFQ-24">
          <mxGeometry relative="1" as="geometry" />
        </mxCell>
        <mxCell id="m12teL1TtOATJq7UXXTl-11" value="limit changed" style="edgeLabel;html=1;align=center;verticalAlign=middle;resizable=0;points=[];" vertex="1" connectable="0" parent="m12teL1TtOATJq7UXXTl-10">
          <mxGeometry x="0.0318" y="-1" relative="1" as="geometry">
            <mxPoint as="offset" />
          </mxGeometry>
        </mxCell>
      </root>
    </mxGraphModel>
  </diagram>
</mxfile>
